<svg width="66" height="66" viewBox="0 0 66 66" fill="none" xmlns="http://www.w3.org/2000/svg">
<rect x="5" y="5" width="56" height="56" rx="28" fill="#FEF0C7"/>
<rect x="5" y="5" width="56" height="56" rx="28" stroke="#FFFAEB" stroke-width="10"/>
<path d="M32.9999 28.3333V33M32.9999 37.6666H33.0116M31.0049 22.3366L21.1232 38.8333C20.9195 39.1861 20.8117 39.5862 20.8106 39.9936C20.8094 40.401 20.915 40.8016 21.1167 41.1556C21.3185 41.5095 21.6094 41.8045 21.9606 42.0111C22.3117 42.2178 22.7108 42.3288 23.1182 42.3333H42.8816C43.289 42.3288 43.6881 42.2178 44.0392 42.0111C44.3904 41.8045 44.6813 41.5095 44.8831 41.1556C45.0848 40.8016 45.1904 40.401 45.1892 39.9936C45.1881 39.5862 45.0803 39.1861 44.8766 38.8333L34.9949 22.3366C34.7869 21.9938 34.4941 21.7103 34.1446 21.5135C33.7952 21.3168 33.4009 21.2134 32.9999 21.2134C32.5989 21.2134 32.2046 21.3168 31.8552 21.5135C31.5057 21.7103 31.2129 21.9938 31.0049 22.3366Z" stroke="#DC6803" stroke-width="2.33333" stroke-linecap="round" stroke-linejoin="round"/>
</svg>
