<svg width="208" height="69" viewBox="0 0 208 69" fill="none" xmlns="http://www.w3.org/2000/svg">
<g clip-path="url(#clip0_1531_7151)">
<path d="M149.384 61.4876H136.298C131.25 61.4876 127.805 57.3959 128.605 52.3458L129.1 49.2271C129.169 48.7967 129.574 48.4454 130.004 48.4454H133.19C133.62 48.4454 133.915 48.7946 133.847 49.2271L133.352 52.3458C132.967 54.7742 134.624 56.741 137.05 56.741H150.136C150.806 56.741 151.434 56.1983 151.54 55.5289L151.558 55.4124C151.735 54.2939 150.972 53.3874 149.854 53.3874H140.044L140.93 47.7988C141.737 42.707 145.797 39.0125 150.585 39.0125L149.995 43.7528L150.205 41.4138L149.833 43.757C147.236 43.757 145.97 45.9338 145.675 47.7967L145.542 48.6387H150.604C154.344 48.6387 156.896 51.6701 156.303 55.4104L156.284 55.5268C155.762 58.818 152.673 61.4834 149.384 61.4834V61.4876Z" fill="#0E6A37"/>
<path d="M197.076 61.448H183.604C179.949 61.448 177.456 58.4853 178.036 54.8323L179.094 48.1459H183.841L182.782 54.8323C182.618 55.8656 183.323 56.7035 184.356 56.7035H197.829C199.573 56.7035 201.209 55.2897 201.486 53.5453L201.534 53.2438C201.02 53.3686 200.492 53.4351 199.958 53.4351L197.571 53.431C193.554 53.431 190.801 50.1709 191.423 46.1562C192.074 41.9543 196.186 38.688 200.363 38.8377C202.613 38.9188 204.721 39.5696 206.484 40.7339L207.574 41.4532C207.896 41.6653 208.052 42.0478 207.985 42.4616L207.245 47.1375H207.253C207.237 47.2435 207.218 47.3475 207.195 47.4514L206.231 53.5453C205.538 57.9093 201.44 61.448 197.076 61.448ZM199.13 43.5739C197.721 43.5739 196.394 44.7195 196.172 46.1291C195.949 47.5388 196.914 48.6844 198.322 48.6844L200.713 48.6885C201.515 48.6864 202.272 48.0731 202.474 47.2914L202.914 44.5116C201.796 43.8962 200.498 43.5739 199.13 43.5739Z" fill="#0E6A37"/>
<path d="M170.821 54.9611H168.424C167.775 54.9611 167.332 54.4351 167.434 53.7864L169.588 40.1933C169.69 39.5446 170.299 39.0186 170.95 39.0186H173.347C173.996 39.0186 174.439 39.5446 174.337 40.1933L172.183 53.7864C172.081 54.4351 171.472 54.9611 170.821 54.9611Z" fill="#0E6A37"/>
<path d="M175.115 61.4479H159.441C158.792 61.4479 158.349 60.9219 158.451 60.2732L158.832 57.876C158.934 57.2273 159.543 56.7013 160.193 56.7013H175.868C176.901 56.7013 177.872 55.8634 178.034 54.8301L181.039 35.8666C181.14 35.2179 181.75 34.6919 182.4 34.6919H184.798C185.446 34.6919 185.889 35.2179 185.787 35.8666L182.783 54.8301C182.205 58.4852 178.772 61.4458 175.117 61.4458L175.115 61.4479Z" fill="#0E6A37"/>
<path d="M203.717 33.7521C203.509 35.062 202.278 36.1244 200.968 36.1244C199.659 36.1244 198.765 35.062 198.97 33.7521C199.178 32.4423 200.409 31.3799 201.719 31.3799C203.029 31.3799 203.923 32.4423 203.717 33.7521Z" fill="#0E6A37"/>
<path d="M145.987 66.5766C145.779 67.8864 144.548 68.9489 143.238 68.9489C141.928 68.9489 141.034 67.8864 141.24 66.5766C141.448 65.2668 142.679 64.2043 143.989 64.2043C145.299 64.2043 146.193 65.2668 145.987 66.5766Z" fill="#0E6A37"/>
<path d="M139.645 66.5766C139.437 67.8864 138.206 68.9489 136.896 68.9489C135.587 68.9489 134.693 67.8864 134.898 66.5766C135.106 65.2668 136.337 64.2043 137.647 64.2043C138.957 64.2043 139.851 65.2668 139.645 66.5766Z" fill="#0E6A37"/>
<path d="M113.369 66.5766C113.161 67.8864 111.93 68.9489 110.621 68.9489C109.311 68.9489 108.417 67.8864 108.623 66.5766C108.831 65.2668 110.061 64.2043 111.371 64.2043C112.681 64.2043 113.575 65.2668 113.369 66.5766Z" fill="#0E6A37"/>
<path d="M153.307 46.0462C152.883 46.2125 152.455 46.0275 152.351 45.6304C152.053 44.4952 151.064 43.7612 149.833 43.7612L150.586 39.0146C153.731 39.0146 156.257 40.8879 157.018 43.7883C157.122 44.1854 156.865 44.6428 156.44 44.8112L153.309 46.0462H153.307Z" fill="#0E6A37"/>
<path d="M117.482 61.4583H92.4455L93.1981 56.7117H116.619C116.862 56.7117 117.089 56.5141 117.129 56.273L117.555 53.5868C117.871 51.5867 116.885 49.8007 115.101 49.1437C114.8 49.0356 113.74 48.9462 113.008 48.94C112.765 48.9483 110.004 49.0834 107.261 50.3704C106.681 50.6427 106.055 50.466 105.81 49.9608L104.824 47.9378C104.542 47.3598 104.866 46.5823 105.525 46.2621C109.567 44.2932 113.509 44.1975 113.69 44.1934H113.717H113.744C114.303 44.1954 116.22 44.237 117.37 44.6612C120.956 45.9814 122.938 49.5678 122.301 53.5868L121.619 57.8884C121.308 59.8594 119.455 61.4583 117.484 61.4583H117.482Z" fill="#0E6A37"/>
<path d="M96.6468 55.1462L97.8153 47.7716C97.8798 47.3579 97.7238 46.9753 97.4036 46.7632L96.3121 46.0439C94.4243 44.7985 92.1414 44.1394 89.7109 44.1394C85.6172 44.1394 81.8249 47.834 81.0785 52.5494C80.303 57.4498 83.6545 61.4355 88.5529 61.4396L89.3575 61.4438C89.8918 61.4438 90.4199 61.3773 90.9335 61.2525L90.8856 61.554C90.8794 61.5977 90.8711 61.6413 90.8628 61.6871C90.5197 63.4044 88.9562 64.1737 87.557 64.1737C84.9061 64.1737 83.3135 63.7578 82.2303 63.3108C81.644 63.0676 80.8914 63.3919 80.5754 64.0281L79.4464 66.3006C79.1491 66.8973 79.3508 67.5501 79.9038 67.7747C81.3405 68.3548 83.4882 68.9223 86.8044 68.9223C91.0062 68.9223 94.7736 65.8952 95.574 61.8825C95.5948 61.7744 95.6156 61.6663 95.6322 61.5581L96.5969 55.4622C96.6177 55.3583 96.6364 55.2543 96.6531 55.1483H96.6468V55.1462ZM91.8753 55.3C91.6736 56.0818 90.9148 56.6951 90.1122 56.6972L89.3097 56.693C87.0247 56.693 85.4613 54.8322 85.823 52.5473C86.1494 50.4911 87.5258 48.8818 88.9583 48.8818C90.3908 48.8818 91.6237 49.2041 92.7423 49.8195L91.8753 55.298V55.3Z" fill="#0E6A37"/>
<path d="M103.184 2.82999L102.219 5.15443C101.955 5.78856 101.246 6.16696 100.641 5.99647C99.7762 5.75113 99.0318 5.69084 98.8011 5.67629C98.7699 5.67629 98.7408 5.67421 98.7096 5.67629C98.3499 5.68252 97.9154 5.71579 97.6596 5.75321C97.5744 5.76569 97.4891 5.78648 97.406 5.81767C96.4101 6.19814 95.6471 7.11087 95.4849 8.12963L92.3143 28.1473C92.2124 28.7959 91.6032 29.322 90.9524 29.322H88.5552C87.9065 29.322 87.4637 28.7959 87.5656 28.1473L90.7362 8.12963C91.2248 5.05047 93.6116 2.3019 96.6804 1.29145C97.6513 0.97127 98.9923 0.931767 99.5225 0.929688H99.5766C99.7949 0.933846 101.044 0.975428 102.57 1.40372C103.165 1.57213 103.437 2.20834 103.18 2.83207L103.184 2.82999Z" fill="#0E6A37"/>
<path d="M161.646 29.5605H159.729C155.444 29.5605 152.512 26.0759 153.19 21.7909L153.862 17.5475C154.54 13.2624 158.577 9.77783 162.862 9.77783H164.779C169.064 9.77783 171.996 13.2624 171.318 17.5475L170.646 21.7909C169.969 26.0759 165.931 29.5605 161.646 29.5605ZM162.112 14.5244C160.444 14.5244 158.872 15.88 158.608 17.5475L157.937 21.7909C157.673 23.4583 158.814 24.8139 160.482 24.8139H162.399C164.066 24.8139 165.638 23.4583 165.902 21.7909L166.573 17.5475C166.837 15.88 165.696 14.5244 164.029 14.5244H162.112Z" fill="#0E6A37"/>
<path d="M98.5239 14.6682H88.2469C87.5982 14.6682 87.1554 14.1422 87.2572 13.4935L87.6377 11.0963C87.7396 10.4476 88.3488 9.92163 88.9995 9.92163H99.2765C99.9252 9.92163 100.368 10.4476 100.266 11.0963L99.8857 13.4935C99.7838 14.1422 99.1747 14.6682 98.5239 14.6682Z" fill="#0E6A37"/>
<path d="M130.027 10.0669C130.833 10.0669 131.274 10.8632 130.89 11.6262L121.351 30.5232L120.405 32.4568C120.018 33.224 119.5 34.0036 118.908 34.7126C116.945 37.0641 114.296 38.4155 111.639 38.4197H111.635C110.529 38.4197 109.078 37.9269 108.66 37.7751L108.612 37.7564C108.573 37.7419 108.502 37.7128 108.404 37.6712C107.861 37.4362 107.67 36.7855 107.972 36.195L109.123 33.9288C109.45 33.2884 110.219 32.9682 110.801 33.2344C110.868 33.2656 110.916 33.2863 110.941 33.2967C111.475 33.4859 112.161 33.6627 112.398 33.6731C113.76 33.6731 114.783 32.7936 115.398 32.0555C115.704 31.6875 115.968 31.2966 116.159 30.9182L116.527 30.1677L117.105 28.9847L119.875 23.4979L126.255 10.857C126.494 10.3829 126.989 10.0669 127.49 10.0669H130.027Z" fill="#0E6A37"/>
<path d="M121.253 28.5526L116.598 30.4321L116.527 30.1701L111.487 11.7098C111.275 10.9342 111.982 10.0693 112.826 10.0693H115.438C115.907 10.0693 116.286 10.3479 116.404 10.7783L119.877 23.5004L121.255 28.5547L121.253 28.5526Z" fill="#0E6A37"/>
<path d="M104.916 29.3196H102.519C101.871 29.3196 101.428 28.7935 101.53 28.1449L105.802 1.17469C105.904 0.526014 106.513 0 107.164 0H109.561C110.21 0 110.653 0.526014 110.551 1.17469L106.28 28.1449C106.178 28.7935 105.569 29.3196 104.919 29.3196H104.916Z" fill="#0E6A37"/>
<path d="M150.154 22.2402L151.337 14.7763C151.506 13.7159 151.102 12.7325 150.279 12.1898L149.905 11.9424C147.753 10.5245 145.154 9.77393 142.387 9.77393C137.825 9.77393 133.596 13.9176 132.758 19.2068C131.885 24.7144 135.657 29.1928 141.16 29.199L142.098 29.2053C142.869 29.2053 143.63 29.0784 144.362 28.8456L144.22 29.7333C144.212 29.7895 144.202 29.8477 144.189 29.9018C143.74 32.1638 141.632 33.193 139.865 33.193C137.671 33.193 136.187 32.904 135.314 32.6524C134.746 32.4882 134.074 32.8167 133.779 33.3988L132.598 35.7233C132.28 36.3491 132.511 37.0393 133.116 37.2327C134.613 37.7088 136.592 37.9417 139.112 37.9417C143.803 37.9417 148.011 34.5693 148.901 30.0972C148.925 29.9766 148.946 29.856 148.967 29.7354L150.098 22.5999C150.123 22.4814 150.144 22.3629 150.163 22.2444H150.154V22.2402ZM145.376 22.4398C145.096 23.5667 144.008 24.4545 142.857 24.4566L141.919 24.4503C139.027 24.4503 137.045 22.0968 137.505 19.2048C137.921 16.5768 139.736 14.5184 141.636 14.5184C143.383 14.5184 145.029 14.9509 146.435 15.7721L145.379 22.4378L145.376 22.4398Z" fill="#0E6A37"/>
<path d="M195.024 10.9921L191.804 19.7451L189.88 10.8216C189.781 10.3621 189.392 10.0586 188.901 10.0586H185.687C185.196 10.0586 184.708 10.3642 184.464 10.8237L179.58 20.0466L178.84 10.9588C178.797 10.4308 178.383 10.0586 177.84 10.0586H175.377C174.618 10.0586 173.944 10.7676 174.004 11.5077L175.379 28.4109C175.422 28.939 175.836 29.3111 176.379 29.3111H178.919C179.41 29.3111 179.899 29.0055 180.142 28.546L186.177 17.1504L188.633 28.5502C188.733 29.0096 189.121 29.3132 189.612 29.3132H192.18C192.735 29.3132 193.278 28.9244 193.477 28.3797L199.696 11.4765C199.964 10.7468 199.515 10.0607 198.771 10.0607H196.321C195.766 10.0607 195.224 10.4495 195.024 10.9942V10.9921Z" fill="#0E6A37"/>
<path d="M60.4703 62.5766H2.62537C1.01198 62.5766 -0.218846 61.1357 0.0327257 59.5411L1.52552 50.1144C1.7272 48.8399 2.82704 47.9001 4.11817 47.9001H61.9631C63.5764 47.9001 64.8073 49.341 64.5557 50.9356L63.0629 60.3623C62.8612 61.6368 61.7614 62.5766 60.4703 62.5766Z" fill="#0E6A37"/>
<path d="M63.7616 41.7965H27.2088C25.5954 41.7965 24.3646 40.3557 24.6162 38.761L26.109 29.3344C26.3106 28.0599 27.4105 27.1201 28.7016 27.1201H65.2544C66.8678 27.1201 68.0986 28.5609 67.847 30.1556L66.3542 39.5823C66.1525 40.8568 65.0527 41.7965 63.7616 41.7965Z" fill="#0E6A37"/>
<path d="M67.059 20.9801H57.7654C56.152 20.9801 54.9212 19.5393 55.1728 17.9446L56.6552 8.58656C56.8568 7.31207 57.9567 6.37231 59.2478 6.37231H68.5414C70.1548 6.37231 71.3856 7.81313 71.1341 9.40781L69.6517 18.7659C69.45 20.0404 68.3501 20.9801 67.059 20.9801Z" fill="#0E6A37"/>
</g>
<defs>
<clipPath id="clip0_1531_7151">
<rect width="208" height="68.9515" fill="white"/>
</clipPath>
</defs>
</svg>
