<svg width="256" height="85" viewBox="0 0 256 85" fill="none" xmlns="http://www.w3.org/2000/svg">
<g clip-path="url(#clip0_833_7049)">
<path d="M183.489 75.5253H167.415C161.215 75.5253 156.983 70.4994 157.966 64.2963L158.574 60.4657C158.658 59.937 159.156 59.5054 159.685 59.5054H163.597C164.126 59.5054 164.489 59.9345 164.404 60.4657L163.797 64.2963C163.324 67.2791 165.36 69.695 168.34 69.695H184.413C185.236 69.695 186.007 69.0285 186.137 68.2062L186.16 68.0631C186.377 66.6892 185.44 65.5758 184.066 65.5758H172.017L173.105 58.7112C174.096 52.457 179.084 47.9189 184.965 47.9189L184.24 53.7416L184.498 50.8686L184.04 53.7467C180.851 53.7467 179.296 56.4205 178.933 58.7087L178.769 59.7429H184.988C189.582 59.7429 192.716 63.4663 191.988 68.0606L191.965 68.2036C191.324 72.2462 187.529 75.5202 183.489 75.5202V75.5253Z" fill="white"/>
<path d="M242.07 75.477H225.521C221.032 75.477 217.97 71.8379 218.682 67.3509L219.982 59.1379H225.812L224.513 67.3509C224.311 68.6201 225.177 69.6493 226.446 69.6493H242.994C245.137 69.6493 247.147 67.9127 247.486 65.7701L247.545 65.3998C246.914 65.553 246.266 65.6348 245.609 65.6348L242.678 65.6296C237.744 65.6296 234.363 61.6253 235.126 56.694C235.925 51.5328 240.977 47.5208 246.107 47.7047C248.871 47.8043 251.46 48.6036 253.626 50.0337L254.964 50.9173C255.36 51.1778 255.551 51.6477 255.469 52.1559L254.56 57.8994H254.571C254.55 58.0296 254.527 58.1573 254.499 58.285L253.314 65.7701C252.464 71.1305 247.43 75.477 242.07 75.477ZM244.593 53.5222C242.861 53.5222 241.232 54.9293 240.959 56.6608C240.686 58.3922 241.871 59.7994 243.6 59.7994L246.536 59.8045C247.522 59.8019 248.452 59.0486 248.699 58.0883L249.241 54.6739C247.867 53.918 246.273 53.5222 244.593 53.5222Z" fill="white"/>
<path d="M209.82 67.509H206.876C206.079 67.509 205.535 66.8629 205.66 66.0661L208.306 49.3695C208.431 48.5727 209.179 47.9266 209.979 47.9266H212.923C213.72 47.9266 214.264 48.5727 214.139 49.3695L211.493 66.0661C211.368 66.8629 210.62 67.509 209.82 67.509Z" fill="white"/>
<path d="M215.095 75.4766H195.842C195.045 75.4766 194.501 74.8305 194.626 74.0337L195.094 71.0892C195.219 70.2925 195.967 69.6463 196.766 69.6463H216.019C217.289 69.6463 218.481 68.6172 218.68 67.3479L222.371 44.0549C222.496 43.2582 223.244 42.6121 224.043 42.6121H226.988C227.785 42.6121 228.329 43.2582 228.204 44.0549L224.513 67.3479C223.803 71.8375 219.587 75.4741 215.098 75.4741L215.095 75.4766Z" fill="white"/>
<path d="M250.227 41.4578C249.971 43.0667 248.46 44.3717 246.851 44.3717C245.242 44.3717 244.144 43.0667 244.396 41.4578C244.652 39.8489 246.164 38.5439 247.773 38.5439C249.381 38.5439 250.48 39.8489 250.227 41.4578Z" fill="white"/>
<path d="M179.316 81.7767C179.061 83.3855 177.549 84.6905 175.94 84.6905C174.331 84.6905 173.233 83.3855 173.486 81.7767C173.741 80.1678 175.253 78.8628 176.862 78.8628C178.471 78.8628 179.569 80.1678 179.316 81.7767Z" fill="white"/>
<path d="M171.527 81.7767C171.271 83.3855 169.759 84.6905 168.151 84.6905C166.542 84.6905 165.444 83.3855 165.696 81.7767C165.952 80.1678 167.464 78.8628 169.073 78.8628C170.681 78.8628 171.78 80.1678 171.527 81.7767Z" fill="white"/>
<path d="M139.252 81.7765C138.997 83.3854 137.485 84.6904 135.876 84.6904C134.267 84.6904 133.169 83.3854 133.422 81.7765C133.677 80.1677 135.189 78.8627 136.798 78.8627C138.407 78.8627 139.505 80.1677 139.252 81.7765Z" fill="white"/>
<path d="M188.308 56.5586C187.787 56.7629 187.261 56.5356 187.133 56.0479C186.768 54.6535 185.553 53.752 184.041 53.752L184.965 47.9218C188.829 47.9218 191.932 50.2227 192.867 53.7852C192.994 54.273 192.678 54.8348 192.157 55.0417L188.311 56.5586H188.308Z" fill="white"/>
<path d="M144.304 75.4894H113.551L114.476 69.6591H143.244C143.543 69.6591 143.821 69.4165 143.87 69.1203L144.393 65.8208C144.781 63.3641 143.571 61.1704 141.38 60.3634C141.009 60.2306 139.707 60.1208 138.808 60.1131C138.509 60.1233 135.118 60.2893 131.749 61.8701C131.037 62.2047 130.268 61.9876 129.967 61.367L128.756 58.8822C128.409 58.1722 128.808 57.2171 129.617 56.8238C134.582 54.4054 139.424 54.2879 139.646 54.2828H139.679H139.712C140.399 54.2854 142.754 54.3365 144.166 54.8574C148.571 56.4791 151.005 60.8843 150.224 65.8208L149.386 71.1046C149.003 73.5255 146.727 75.4894 144.306 75.4894H144.304Z" fill="white"/>
<path d="M118.712 67.7361L120.147 58.6779C120.226 58.1697 120.035 57.6998 119.641 57.4393L118.301 56.5557C115.982 55.026 113.178 54.2164 110.192 54.2164C105.164 54.2164 100.506 58.7545 99.5892 64.5465C98.6366 70.5657 102.753 75.4613 108.77 75.4664L109.758 75.4715C110.415 75.4715 111.063 75.3898 111.694 75.2366L111.635 75.6069C111.628 75.6605 111.617 75.7141 111.607 75.7703C111.186 77.8797 109.265 78.8246 107.547 78.8246C104.291 78.8246 102.335 78.3139 101.004 77.7648C100.284 77.466 99.3593 77.8644 98.9712 78.6459L97.5845 81.4371C97.2193 82.1701 97.467 82.972 98.1463 83.2478C99.911 83.9603 102.549 84.6575 106.622 84.6575C111.783 84.6575 116.411 80.9392 117.394 76.0104C117.42 75.8776 117.445 75.7448 117.466 75.612L118.651 68.1243C118.676 67.9966 118.699 67.8689 118.72 67.7387H118.712V67.7361ZM112.851 67.9251C112.603 68.8853 111.671 69.6387 110.685 69.6412L109.7 69.6361C106.893 69.6361 104.973 67.3505 105.417 64.5439C105.818 62.0182 107.508 60.0416 109.268 60.0416C111.028 60.0416 112.542 60.4374 113.916 61.1933L112.851 67.9226V67.9251Z" fill="white"/>
<path d="M126.741 3.476L125.556 6.33112C125.232 7.11002 124.361 7.57481 123.618 7.3654C122.556 7.06406 121.641 6.99 121.358 6.97212C121.32 6.97212 121.284 6.96957 121.246 6.97212C120.804 6.97978 120.27 7.02064 119.956 7.06661C119.851 7.08193 119.746 7.10747 119.644 7.14578C118.421 7.61312 117.484 8.73423 117.285 9.98558L113.39 34.5733C113.265 35.3701 112.517 36.0162 111.717 36.0162H108.773C107.976 36.0162 107.432 35.3701 107.557 34.5733L111.452 9.98558C112.052 6.20343 114.984 2.82734 118.753 1.5862C119.946 1.19292 121.593 1.1444 122.244 1.14185H122.31C122.579 1.14695 124.113 1.19803 125.988 1.72411C126.718 1.93096 127.053 2.71242 126.736 3.47855L126.741 3.476Z" fill="white"/>
<path d="M198.551 36.3093H196.196C190.933 36.3093 187.332 32.0292 188.164 26.7659L188.989 21.5536C189.822 16.2903 194.781 12.0101 200.045 12.0101H202.399C207.662 12.0101 211.263 16.2903 210.431 21.5536L209.606 26.7659C208.773 32.0292 203.814 36.3093 198.551 36.3093ZM199.123 17.8404C197.074 17.8404 195.144 19.5055 194.819 21.5536L193.995 26.7659C193.67 28.814 195.072 30.479 197.12 30.479H199.475C201.523 30.479 203.454 28.814 203.778 26.7659L204.603 21.5536C204.927 19.5055 203.525 17.8404 201.477 17.8404H199.123Z" fill="white"/>
<path d="M121.017 18.0169H108.394C107.597 18.0169 107.053 17.3708 107.179 16.574L107.646 13.6295C107.771 12.8328 108.519 12.1866 109.319 12.1866H121.942C122.739 12.1866 123.283 12.8328 123.158 13.6295L122.69 16.574C122.565 17.3708 121.817 18.0169 121.017 18.0169Z" fill="white"/>
<path d="M159.713 12.3655C160.704 12.3655 161.245 13.3436 160.772 14.2808L149.056 37.4921L147.894 39.8671C147.419 40.8094 146.783 41.7671 146.055 42.638C143.644 45.5263 140.391 47.1862 137.127 47.1913H137.122C135.763 47.1913 133.981 46.5861 133.468 46.3997L133.409 46.3767C133.36 46.3588 133.273 46.3231 133.153 46.272C132.487 45.9834 132.252 45.1841 132.622 44.4588L134.037 41.6752C134.438 40.8886 135.383 40.4953 136.098 40.8222C136.18 40.8605 136.238 40.8861 136.269 40.8988C136.925 41.1312 137.768 41.3483 138.059 41.3611C139.732 41.3611 140.988 40.2808 141.744 39.3742C142.12 38.9222 142.444 38.4421 142.679 37.9773L143.131 37.0554L143.841 35.6023L147.243 28.8629L155.08 13.3359C155.374 12.7537 155.982 12.3655 156.597 12.3655H159.713Z" fill="white"/>
<path d="M148.936 35.0712L143.218 37.3799L143.131 37.0581L136.94 14.3831C136.68 13.4305 137.548 12.3682 138.585 12.3682H141.793C142.37 12.3682 142.835 12.7104 142.98 13.239L147.245 28.8656L148.938 35.0738L148.936 35.0712Z" fill="white"/>
<path d="M128.869 36.0134H125.925C125.128 36.0134 124.584 35.3673 124.709 34.5705L129.957 1.44288C130.083 0.646106 130.831 0 131.63 0H134.575C135.371 0 135.915 0.646106 135.79 1.44288L130.545 34.5705C130.42 35.3673 129.671 36.0134 128.872 36.0134H128.869Z" fill="white"/>
<path d="M184.435 27.3176L185.888 18.1495C186.095 16.8471 185.6 15.6392 184.588 14.9726L184.129 14.6687C181.486 12.927 178.293 12.0051 174.894 12.0051C169.291 12.0051 164.097 17.0948 163.068 23.5916C161.995 30.3566 166.628 35.8574 173.388 35.8651L174.539 35.8727C175.487 35.8727 176.421 35.717 177.32 35.4309L177.147 36.5214C177.137 36.5903 177.124 36.6619 177.108 36.7283C176.557 39.5068 173.967 40.7709 171.797 40.7709C169.102 40.7709 167.279 40.4159 166.206 40.1069C165.509 39.9052 164.684 40.3086 164.322 41.0237L162.871 43.8788C162.48 44.6475 162.764 45.4954 163.507 45.7329C165.346 46.3177 167.777 46.6037 170.872 46.6037C176.633 46.6037 181.802 42.4615 182.895 36.9683C182.926 36.8202 182.952 36.6721 182.977 36.5239L184.366 27.7594C184.397 27.6138 184.422 27.4683 184.445 27.3227H184.435V27.3176ZM178.567 27.5627C178.222 28.9469 176.886 30.0373 175.471 30.0399L174.32 30.0322C170.767 30.0322 168.334 27.1414 168.898 23.5891C169.409 20.3611 171.638 17.8328 173.972 17.8328C176.118 17.8328 178.14 18.364 179.867 19.3728L178.569 27.5602L178.567 27.5627Z" fill="white"/>
<path d="M239.549 13.5015L235.593 24.2529L233.231 13.2921C233.109 12.7277 232.631 12.3549 232.028 12.3549H228.08C227.477 12.3549 226.877 12.7303 226.579 13.2946L220.58 24.6232L219.671 13.4606C219.617 12.812 219.109 12.3549 218.442 12.3549H215.416C214.484 12.3549 213.656 13.2257 213.73 14.1348L215.419 34.897C215.472 35.5457 215.98 36.0028 216.647 36.0028H219.768C220.37 36.0028 220.97 35.6274 221.269 35.063L228.683 21.0658L231.699 35.0682C231.821 35.6325 232.299 36.0054 232.902 36.0054H236.056C236.737 36.0054 237.404 35.5278 237.649 34.8587L245.287 14.0965C245.617 13.2002 245.065 12.3574 244.151 12.3574H241.143C240.461 12.3574 239.794 12.835 239.549 13.5041V13.5015Z" fill="white"/>
<path d="M74.276 76.8632H3.22476C1.24303 76.8632 -0.26881 75.0934 0.0401971 73.1347L1.87381 61.5558C2.12153 59.9904 3.47247 58.8361 5.05837 58.8361H76.1096C78.0913 58.8361 79.6031 60.6058 79.2941 62.5646L77.4605 74.1434C77.2128 75.7089 75.8618 76.8632 74.276 76.8632Z" fill="white"/>
<path d="M78.3187 51.3389H33.4207C31.439 51.3389 29.9272 49.5691 30.2362 47.6104L32.0698 36.0315C32.3175 34.4661 33.6685 33.3118 35.2544 33.3118H80.1523C82.134 33.3118 83.6459 35.0815 83.3369 37.0403L81.5033 48.6191C81.2555 50.1846 79.9046 51.3389 78.3187 51.3389Z" fill="white"/>
<path d="M82.369 25.7702H70.9536C68.9718 25.7702 67.46 24.0005 67.769 22.0417L69.5899 10.5472C69.8376 8.9817 71.1885 7.82739 72.7744 7.82739H84.1898C86.1715 7.82739 87.6834 9.59716 87.3744 11.5559L85.5535 23.0505C85.3058 24.6159 83.9549 25.7702 82.369 25.7702Z" fill="white"/>
</g>
<defs>
<clipPath id="clip0_833_7049">
<rect width="255.488" height="84.6935" fill="white"/>
</clipPath>
</defs>
</svg>
