<svg width="211" height="211" viewBox="0 0 211 211" fill="none" xmlns="http://www.w3.org/2000/svg">
<g clip-path="url(#clip0_833_7836)">
<path d="M26.375 105.5C26.375 115.891 28.4216 126.18 32.398 135.78C36.3744 145.38 42.2027 154.102 49.5502 161.45C56.8976 168.797 65.6203 174.626 75.2202 178.602C84.8201 182.578 95.1092 184.625 105.5 184.625C115.891 184.625 126.18 182.578 135.78 178.602C145.38 174.626 154.102 168.797 161.45 161.45C168.797 154.102 174.626 145.38 178.602 135.78C182.578 126.18 184.625 115.891 184.625 105.5C184.625 95.1092 182.578 84.8201 178.602 75.2202C174.626 65.6203 168.797 56.8976 161.45 49.5502C154.102 42.2027 145.38 36.3744 135.78 32.398C126.18 28.4216 115.891 26.375 105.5 26.375C95.1092 26.375 84.8201 28.4216 75.2202 32.398C65.6203 36.3744 56.8976 42.2027 49.5502 49.5502C42.2027 56.8976 36.3744 65.6203 32.398 75.2202C28.4216 84.8201 26.375 95.1092 26.375 105.5Z" stroke="black" stroke-width="14" stroke-linecap="round" stroke-linejoin="round"/>
<path d="M79.125 105.5L96.7083 123.083L131.875 87.9167" stroke="black" stroke-width="14" stroke-linecap="round" stroke-linejoin="round"/>
</g>
<defs>
<clipPath id="clip0_833_7836">
<rect width="211" height="211" fill="white"/>
</clipPath>
</defs>
</svg>
