<svg width="316" height="278" viewBox="0 0 316 278" fill="none" xmlns="http://www.w3.org/2000/svg">
<g opacity="0.05">
<path fill-rule="evenodd" clip-rule="evenodd" d="M158.015 278.37C91.8668 278.37 38.2412 224.574 38.2412 158.215C38.2412 91.8561 91.8668 38.0599 158.015 38.0599C224.163 38.0599 277.789 91.8561 277.789 158.215C277.789 224.574 224.163 278.37 158.015 278.37ZM158.015 0.492676C71.1655 0.492676 0.793121 71.089 0.793121 158.215C0.793121 190.012 10.1701 219.615 26.2878 244.349C55.0778 288.588 93.0951 330.152 131.771 371.897C149.117 390.621 166.733 390.771 184.229 371.897C222.995 330.062 260.802 288.738 289.712 244.349C305.83 219.585 315.207 190.012 315.207 158.215C315.237 71.089 244.835 0.492676 158.015 0.492676Z" fill="#3474BB"/>
<path fill-rule="evenodd" clip-rule="evenodd" d="M142.976 87.0796H173.054C177.788 87.0796 181.652 90.9565 181.652 95.705V134.504H220.329C225.062 134.504 228.927 138.381 228.927 143.13V173.304C228.927 178.052 225.062 181.929 220.329 181.929H181.652V220.699C181.652 225.447 177.788 229.324 173.054 229.324H142.976C138.242 229.324 134.378 225.447 134.378 220.699V181.929H95.7314C90.998 181.929 87.1333 178.052 87.1333 173.304V143.13C87.1333 138.381 90.998 134.504 95.7314 134.504H134.378V95.705C134.378 90.9565 138.242 87.0796 142.976 87.0796Z" fill="#3474BB"/>
</g>
</svg>
