<svg width="264" height="49" viewBox="0 0 264 49" fill="none" xmlns="http://www.w3.org/2000/svg">
<g clip-path="url(#clip0_19545_7067)">
<path d="M74.5115 7.82031C75.2389 7.82031 75.8245 8.05232 76.2647 8.50886C76.7086 8.96914 76.9287 9.56413 76.9287 10.2938V39.3663C76.9287 40.0922 76.7086 40.691 76.2647 41.1513C75.8208 41.6115 75.2389 41.8398 74.5115 41.8398C73.7841 41.8398 73.1984 41.619 72.7583 41.1737C72.3144 40.7284 72.0943 40.1297 72.0943 39.3663V26.5683H53.4095V39.3663C53.4095 40.0922 53.1894 40.691 52.7455 41.1513C52.3016 41.6115 51.7197 41.8398 50.9923 41.8398C50.2649 41.8398 49.6793 41.619 49.2391 41.1737C48.7952 40.7284 48.5751 40.1297 48.5751 39.3663V10.2938C48.5751 9.56413 48.7952 8.96914 49.2391 8.50886C49.6793 8.04858 50.2649 7.82031 50.9923 7.82031C51.7197 7.82031 52.3054 8.05232 52.7455 8.50886C53.1894 8.96914 53.4095 9.56413 53.4095 10.2938V22.568H72.0943V10.2938C72.0943 9.56413 72.3144 8.96914 72.7583 8.50886C73.2022 8.04858 73.7841 7.82031 74.5115 7.82031ZM259.733 19.331C259.923 18.8558 260.199 18.5078 260.561 18.2832C260.923 18.0625 261.314 17.9502 261.721 17.9502C262.321 17.9502 262.851 18.156 263.31 18.5714C263.769 18.983 263.996 19.4732 263.996 20.0458C263.996 20.3639 263.933 20.6632 263.806 20.9514L254.745 40.2195C254.525 40.7247 254.186 41.1138 253.727 41.387C253.272 41.6564 252.787 41.7912 252.28 41.7912C251.772 41.7912 251.295 41.6527 250.836 41.387C250.377 41.1176 250.038 40.7284 249.818 40.2195L240.757 20.9514C240.63 20.6969 240.567 20.3938 240.567 20.0458C240.567 19.4732 240.82 18.983 241.324 18.5714C241.827 18.156 242.398 17.9502 243.032 17.9502C243.95 17.9502 244.629 18.3918 245.069 19.2824L252.421 35.6466L259.725 19.3273L259.733 19.331ZM228.111 17.8117C231.178 17.8117 233.461 18.5901 234.964 20.1431C236.463 21.696 237.217 24.0611 237.217 27.2306V39.5534C237.217 40.2831 237.012 40.8481 236.598 41.2448C236.187 41.6415 235.62 41.8398 234.893 41.8398C234.166 41.8398 233.643 41.634 233.233 41.2224C232.823 40.8107 232.618 40.2532 232.618 39.5571V37.7983C232.017 39.1305 231.125 40.1559 229.939 40.8669C228.753 41.5816 227.369 41.9371 225.791 41.9371C224.213 41.9371 222.882 41.6302 221.617 41.0128C220.353 40.3954 219.364 39.5309 218.655 38.4195C217.943 37.3119 217.588 36.0695 217.588 34.7111C217.588 33.0309 218.025 31.7062 218.894 30.737C219.763 29.7678 221.203 29.0792 223.21 28.6676C225.217 28.2522 227.977 28.0464 231.484 28.0464H232.576V26.6656C232.576 24.8881 232.211 23.6045 231.484 22.8149C230.756 22.0216 229.585 21.6249 227.973 21.6249C226.866 21.6249 225.825 21.7671 224.844 22.0515C223.863 22.3359 222.788 22.7476 221.617 23.2864C220.763 23.7617 220.162 24.0012 219.815 24.0012C219.342 24.0012 218.954 23.8253 218.652 23.4773C218.349 23.1255 218.2 22.684 218.2 22.1451C218.2 21.6698 218.334 21.2507 218.603 20.884C218.872 20.5173 219.304 20.1618 219.905 19.8138C221.013 19.2113 222.307 18.7286 223.796 18.3618C225.28 17.9951 226.72 17.8155 228.111 17.8155V17.8117ZM226.642 38.3634C228.38 38.3634 229.805 37.7684 230.909 36.5784C232.013 35.3884 232.569 33.8579 232.569 31.9868V30.7519H231.715C229.249 30.7519 227.35 30.8605 226.026 31.085C224.698 31.3058 223.751 31.68 223.18 32.2039C222.609 32.724 222.326 33.4799 222.326 34.4641C222.326 35.6017 222.736 36.541 223.557 37.2707C224.381 38.0004 225.407 38.3671 226.642 38.3671V38.3634ZM210.881 7.82031C211.575 7.82031 212.139 8.05232 212.564 8.50886C212.993 8.96914 213.205 9.56413 213.205 10.2938V39.3663C213.205 40.0922 212.985 40.691 212.541 41.1513C212.098 41.6115 211.531 41.8398 210.833 41.8398C210.012 41.8398 209.378 41.5217 208.934 40.8893L190.343 16.2924V39.3663C190.343 40.0922 190.13 40.691 189.701 41.1513C189.276 41.6115 188.713 41.8398 188.019 41.8398C187.325 41.8398 186.769 41.619 186.359 41.1737C185.949 40.7284 185.743 40.1297 185.743 39.3663V10.2938C185.743 9.56413 185.963 8.96914 186.407 8.50886C186.851 8.04858 187.418 7.82031 188.116 7.82031C188.94 7.82031 189.571 8.13839 190.015 8.77081L208.606 33.4163V10.2938C208.606 9.56413 208.811 8.96914 209.221 8.50886C209.632 8.04858 210.188 7.82031 210.881 7.82031ZM172.937 17.8117C178.44 17.8117 181.189 20.9364 181.189 27.182V39.5534C181.189 40.2494 180.969 40.807 180.525 41.2186C180.085 41.6302 179.495 41.8361 178.772 41.8361C178.048 41.8361 177.466 41.6302 177.041 41.2186C176.615 40.807 176.403 40.2494 176.403 39.5534V27.2306C176.403 25.3296 176.015 23.9338 175.239 23.0432C174.463 22.1563 173.255 21.711 171.613 21.711C169.685 21.711 168.137 22.3135 166.965 23.5184C165.794 24.7234 165.212 26.34 165.212 28.372V39.5496C165.212 40.2457 165 40.8032 164.571 41.2149C164.142 41.6265 163.567 41.8323 162.84 41.8323C162.112 41.8323 161.527 41.6265 161.083 41.2149C160.639 40.8032 160.419 40.2457 160.419 39.5496V10.103C160.419 9.40697 160.646 8.84939 161.105 8.43776C161.564 8.02613 162.157 7.82031 162.884 7.82031C163.612 7.82031 164.142 8.01864 164.567 8.41531C164.992 8.81197 165.208 9.34335 165.208 10.0094V21.9019C165.999 20.5697 167.059 19.5556 168.387 18.8595C169.715 18.1598 171.233 17.8117 172.941 17.8117H172.937ZM154.79 38.1725C155.484 38.2362 155.984 38.4195 156.282 38.7226C156.58 39.022 156.733 39.4449 156.733 39.9837C156.733 40.6161 156.487 41.1026 155.998 41.4319C155.51 41.7687 154.79 41.8997 153.842 41.8361L152.563 41.7425C150 41.5517 148.09 40.7696 146.826 39.3887C145.561 38.0079 144.927 35.9684 144.927 33.2741V22.0927H142.081C140.69 22.0927 139.996 21.4715 139.996 20.2366C139.996 19.6678 140.179 19.215 140.54 18.882C140.902 18.5489 141.417 18.3843 142.081 18.3843H144.927V13.4859C144.927 12.7562 145.14 12.1874 145.565 11.772C145.99 11.3603 146.568 11.1545 147.296 11.1545C148.023 11.1545 148.605 11.3603 149.049 11.772C149.493 12.1836 149.713 12.7562 149.713 13.4859V18.3843H154.409C155.073 18.3843 155.584 18.5527 155.95 18.882C156.316 19.215 156.495 19.6678 156.495 20.2366C156.495 20.8391 156.316 21.2994 155.95 21.6175C155.584 21.9355 155.073 22.0927 154.409 22.0927H149.713V33.6034C149.713 35.0965 150.023 36.1892 150.638 36.8853C151.254 37.5813 152.194 37.9817 153.462 38.0752L154.79 38.1688V38.1725ZM133.703 41.8361C133.009 41.8361 132.431 41.649 131.972 41.2673C131.513 40.8856 131.286 40.313 131.286 39.5534V10.1516C131.286 9.392 131.513 8.81197 131.972 8.41531C132.431 8.01864 133.009 7.82031 133.703 7.82031C134.397 7.82031 134.967 8.01864 135.411 8.41531C135.851 8.81197 136.075 9.392 136.075 10.1516V39.5534C136.075 40.3168 135.855 40.8893 135.411 41.2673C134.967 41.649 134.4 41.8361 133.703 41.8361ZM117.626 17.8117C120.692 17.8117 122.975 18.5901 124.478 20.1431C125.981 21.696 126.731 24.0611 126.731 27.2306V39.5534C126.731 40.2831 126.53 40.8481 126.116 41.2448C125.705 41.6415 125.134 41.8398 124.411 41.8398C123.687 41.8398 123.161 41.634 122.751 41.2224C122.341 40.8107 122.135 40.2532 122.135 39.5571V37.7983C121.535 39.1305 120.643 40.1559 119.453 40.8669C118.271 41.5816 116.887 41.9371 115.305 41.9371C113.724 41.9371 112.396 41.6302 111.131 41.0128C109.867 40.3954 108.878 39.5309 108.169 38.4195C107.457 37.3119 107.103 36.0695 107.103 34.7111C107.103 33.0309 107.539 31.7062 108.408 30.737C109.277 29.7678 110.713 29.0792 112.724 28.6676C114.731 28.2522 117.491 28.0464 120.998 28.0464H122.087V26.6656C122.087 24.8881 121.725 23.6045 120.998 22.8149C120.27 22.0216 119.099 21.6249 117.488 21.6249C116.38 21.6249 115.339 21.7671 114.358 22.0515C113.377 22.3359 112.302 22.7476 111.131 23.2864C110.277 23.7617 109.676 24.0012 109.329 24.0012C108.856 24.0012 108.468 23.8253 108.166 23.4773C107.864 23.1255 107.714 22.684 107.714 22.1451C107.714 21.6698 107.849 21.2507 108.117 20.884C108.386 20.5173 108.818 20.1618 109.423 19.8138C110.531 19.2113 111.825 18.7286 113.313 18.3618C114.798 17.9951 116.238 17.8155 117.629 17.8155L117.626 17.8117ZM116.152 38.3634C117.89 38.3634 119.315 37.7684 120.419 36.5784C121.527 35.3884 122.079 33.8579 122.079 31.9868V30.7519H121.225C118.76 30.7519 116.865 30.8605 115.533 31.085C114.205 31.3058 113.257 31.68 112.69 32.2039C112.12 32.724 111.836 33.4799 111.836 34.4641C111.836 35.6017 112.247 36.541 113.067 37.2707C113.892 38.0004 114.917 38.3671 116.152 38.3671V38.3634ZM100.929 35.7439C101.369 35.7439 101.735 35.9198 102.018 36.2678C102.302 36.6196 102.443 37.0611 102.443 37.6037C102.443 38.5243 101.876 39.2989 100.735 39.9351C99.6271 40.5712 98.4186 41.0614 97.1055 41.4095C95.7925 41.7612 94.5354 41.9334 93.3342 41.9334C89.6674 41.9334 86.7728 40.8631 84.654 38.7226C82.5352 36.5821 81.4758 33.6558 81.4758 29.9436C81.4758 27.5637 81.9421 25.4569 82.8747 23.6195C83.8072 21.7784 85.1203 20.3526 86.8101 19.3385C88.5036 18.3244 90.4209 17.8155 92.5733 17.8155C95.6731 17.8155 98.1239 18.8146 99.9256 20.8129C101.727 22.8112 102.63 25.5055 102.63 28.9033C102.63 30.1682 102.059 30.8081 100.922 30.8081H86.2654C86.5825 35.7215 88.9363 38.18 93.3305 38.18C94.5018 38.18 95.5127 38.0229 96.3669 37.7048C97.2211 37.3867 98.1239 36.9751 99.0713 36.4699C99.1646 36.4063 99.4257 36.2715 99.8547 36.0657C100.28 35.8599 100.638 35.7551 100.922 35.7551L100.929 35.7439ZM92.6777 21.3331C90.8424 21.3331 89.3727 21.9206 88.2686 23.0918C87.1607 24.2631 86.4967 25.9134 86.2766 28.0389H98.5118C98.4185 25.8835 97.8702 24.2257 96.8742 23.0694C95.8783 21.9131 94.4794 21.3331 92.6777 21.3331Z" fill="#1D75D1"/>
<path fill-rule="evenodd" clip-rule="evenodd" d="M19.5763 35.4745C11.3399 35.4745 4.6628 28.7761 4.6628 20.5136C4.6628 12.251 11.3399 5.55263 19.5763 5.55263C27.8126 5.55263 34.4898 12.251 34.4898 20.5136C34.4898 28.7761 27.8126 35.4745 19.5763 35.4745ZM19.5763 0.875C8.76232 0.875 0 9.66521 0 20.5136C0 24.4727 1.16756 28.1587 3.17443 31.2384C6.75919 36.7468 11.4929 41.9222 16.3086 47.1199C18.4684 49.4513 20.6618 49.47 22.8402 47.1199C27.6672 41.9109 32.3747 36.7655 35.9744 31.2384C37.9813 28.155 39.1488 24.4727 39.1488 20.5136C39.1526 9.66521 30.3865 0.875 19.5763 0.875Z" fill="#1D75D1"/>
<path fill-rule="evenodd" clip-rule="evenodd" d="M17.7037 11.6562H21.4489C22.0382 11.6562 22.5194 12.139 22.5194 12.7302V17.5613H27.3352C27.9245 17.5613 28.4058 18.044 28.4058 18.6353V22.3924C28.4058 22.9836 27.9245 23.4663 27.3352 23.4663H22.5194V28.2937C22.5194 28.8849 22.0382 29.3676 21.4489 29.3676H17.7037C17.1143 29.3676 16.6331 28.8849 16.6331 28.2937V23.4663H11.8211C11.2317 23.4663 10.7505 22.9836 10.7505 22.3924V18.6353C10.7505 18.044 11.2317 17.5613 11.8211 17.5613H16.6331V12.7302C16.6331 12.139 17.1143 11.6562 17.7037 11.6562Z" fill="#1D75D1"/>
</g>
<defs>
<clipPath id="clip0_19545_7067">
<rect width="264" height="48" fill="white" transform="translate(0 0.875)"/>
</clipPath>
</defs>
</svg>
